<svg xmlns="http://www.w3.org/2000/svg" width="152" height="32" viewBox="0 0 152 32" fill="none" role="img" aria-label="/=45:A 5B@8:0">
  <g transform="translate(0, 0)">
    <mask id="ym_mask" style="mask-type:alpha" maskUnits="userSpaceOnUse" x="0" y="0" width="32" height="32">
      <ellipse cx="16" cy="16" rx="16" ry="16" fill="white"/>
    </mask>
    <g mask="url(#ym_mask)">
      <rect width="32" height="32" fill="url(#ym_paint0)"/>
      <path d="M0 20H10V32H0V20Z" fill="url(#ym_paint1)"/>
      <path d="M10 16.4C10 14.1598 10 13.0397 10.436 12.184C10.8195 11.4314 11.4314 10.8195 12.184 10.436C13.0397 10 14.1598 10 16.4 10H22V32H10V16.4Z" fill="url(#ym_paint2)"/>
      <path d="M22 0H32V32H22V0Z" fill="url(#ym_paint3)"/>
    </g>
  </g>
  <g transform="translate(40, 1.5)">
    <path d="M8.13333 23.9667H11.6667L16.3333 6.69999V23.9667H20.2V0.799988H14.8L10.1 18.1667L5.36667 0.799988H0V23.9667H3.46667V6.69999L8.13333 23.9667Z" fill="#1B202B"/>
    <path d="M36.3685 22.8333V19.6C35.1351 20.4333 33.0685 21.1667 31.1351 21.1667C28.2351 21.1667 27.1351 19.8 26.9685 17H36.5351V14.9C36.5351 9.06666 33.9685 6.86665 30.0018 6.86665C25.1685 6.86665 22.8685 10.5667 22.8685 15.6333C22.8685 21.4667 25.7351 24.3 30.8018 24.3C33.3351 24.3 35.2018 23.6333 36.3685 22.8333ZM29.9351 9.99999C31.9018 9.99999 32.5018 11.6333 32.5018 13.7333V14.0667H26.9685C27.0685 11.4 28.0351 9.99999 29.9351 9.99999Z" fill="#1B202B"/>
    <path d="M50.6463 10.3333V7.19999H37.3463V10.3333H42.013V23.9667H45.9797V10.3333H50.6463Z" fill="#1B202B"/>
    <path d="M56.6614 7.19999H52.9948V28.8H56.9614V22C57.9614 23.5 59.4281 24.3 61.1281 24.3C64.9948 24.3 67.6614 21.2 67.6614 15.5667C67.6614 9.96665 65.0614 6.86665 61.3281 6.86665C59.4614 6.86665 57.9281 7.73332 56.8614 9.36665L56.6614 7.19999ZM60.1281 21.1667C58.0281 21.1667 56.9614 19.4667 56.9614 15.6C56.9614 11.7 58.0948 9.99999 60.3281 9.99999C62.4948 9.99999 63.5614 11.7 63.5614 15.5667C63.5614 19.4667 62.4281 21.1667 60.1281 21.1667Z" fill="#1B202B"/>
    <path d="M70.3125 7.19999V23.9667H73.8458L79.9125 13.6V23.9667H83.7458V7.19999H80.2125L74.1458 17.5667V7.19999H70.3125Z" fill="#1B202B"/>
    <path d="M96.9101 23.9667H101.41L95.0435 15.0667L100.643 7.19999H96.6435L91.0435 15.0667V7.19999H87.0768V23.9667H91.0435V15.8667L96.9101 23.9667Z" fill="#1B202B"/>
    <path d="M114.942 12.5333C114.942 8.46665 112.875 6.93332 108.675 6.93332C106.042 6.93332 103.975 7.76665 102.775 8.46665V11.7667C103.842 10.9667 106.175 10.1 108.209 10.1C110.109 10.1 110.975 10.7667 110.975 12.5667V13.5H110.342C104.275 13.5 101.575 15.5 101.575 18.9C101.575 22.3 103.642 24.2 106.709 24.2C109.042 24.2 110.042 23.4333 110.809 22.6333H110.975C111.009 23.0667 111.142 23.6333 111.275 23.9667H115.142C115.009 22.6 114.942 21.2333 114.942 19.8667V12.5333ZM110.975 19.9667C110.475 20.7 109.542 21.3 108.142 21.3C106.475 21.3 105.642 20.3667 105.642 18.9333C105.642 17.0333 107.009 16.3333 110.409 16.3333H110.975V19.9667Z" fill="#1B202B"/>
  </g>
  <defs>
    <linearGradient id="ym_paint0" x1="22.9334" y1="23.2008" x2="-3.46665" y2="-13.5992" gradientUnits="userSpaceOnUse">
      <stop stop-color="#4643B9"/>
      <stop offset="1" stop-color="#1E8AFF"/>
    </linearGradient>
    <linearGradient id="ym_paint1" x1="10.6584" y1="27.8479" x2="-18.8276" y2="22.4987" gradientUnits="userSpaceOnUse">
      <stop stop-color="#FF002E"/>
      <stop offset="1" stop-color="#FFADA1"/>
    </linearGradient>
    <linearGradient id="ym_paint2" x1="83.8" y1="80.2778" x2="91.207" y2="20.8038" gradientUnits="userSpaceOnUse">
      <stop stop-color="#3C3BA0"/>
      <stop offset="0.489583" stop-color="#1E8AFF"/>
      <stop offset="1" stop-color="#00B2FF"/>
    </linearGradient>
    <linearGradient id="ym_paint3" x1="22" y1="1.64523" x2="50.1153" y2="16.4011" gradientUnits="userSpaceOnUse">
      <stop stop-color="#FFEA1A"/>
      <stop offset="1" stop-color="#FFB800"/>
    </linearGradient>
  </defs>
</svg>
